<svg width="24" height="24" viewBox="0 0 24 24" fill="none" xmlns="http://www.w3.org/2000/svg">
<mask id="mask0_13_181" style="mask-type:alpha" maskUnits="userSpaceOnUse" x="0" y="0" width="24" height="24">
<rect width="24" height="24" fill="#D9D9D9"/>
</mask>
<g mask="url(#mask0_13_181)">
<path d="M1.33333 24C0.955556 24 0.638889 23.8722 0.383333 23.6167C0.127778 23.3611 0 23.0444 0 22.6667C0 22.2889 0.127778 21.9722 0.383333 21.7167C0.638889 21.4611 0.955556 21.3333 1.33333 21.3333H22.6667C23.0444 21.3333 23.3611 21.4611 23.6167 21.7167C23.8722 21.9722 24 22.2889 24 22.6667C24 23.0444 23.8722 23.3611 23.6167 23.6167C23.3611 23.8722 23.0444 24 22.6667 24H1.33333ZM1.33333 18.6667C0.955556 18.6667 0.638889 18.5389 0.383333 18.2833C0.127778 18.0278 0 17.7111 0 17.3333C0 16.9556 0.127778 16.6389 0.383333 16.3833C0.638889 16.1278 0.955556 16 1.33333 16H14.6667C15.0444 16 15.3611 16.1278 15.6167 16.3833C15.8722 16.6389 16 16.9556 16 17.3333C16 17.7111 15.8722 18.0278 15.6167 18.2833C15.3611 18.5389 15.0444 18.6667 14.6667 18.6667H1.33333ZM1.33333 13.3333C0.955556 13.3333 0.638889 13.2056 0.383333 12.95C0.127778 12.6944 0 12.3778 0 12C0 11.6222 0.127778 11.3056 0.383333 11.05C0.638889 10.7944 0.955556 10.6667 1.33333 10.6667H22.6667C23.0444 10.6667 23.3611 10.7944 23.6167 11.05C23.8722 11.3056 24 11.6222 24 12C24 12.3778 23.8722 12.6944 23.6167 12.95C23.3611 13.2056 23.0444 13.3333 22.6667 13.3333H1.33333ZM1.33333 8C0.955556 8 0.638889 7.87222 0.383333 7.61667C0.127778 7.36111 0 7.04444 0 6.66667C0 6.28889 0.127778 5.97222 0.383333 5.71667C0.638889 5.46111 0.955556 5.33333 1.33333 5.33333H14.6667C15.0444 5.33333 15.3611 5.46111 15.6167 5.71667C15.8722 5.97222 16 6.28889 16 6.66667C16 7.04444 15.8722 7.36111 15.6167 7.61667C15.3611 7.87222 15.0444 8 14.6667 8H1.33333ZM1.33333 2.66667C0.955556 2.66667 0.638889 2.53889 0.383333 2.28333C0.127778 2.02778 0 1.71111 0 1.33333C0 0.955556 0.127778 0.638889 0.383333 0.383333C0.638889 0.127778 0.955556 0 1.33333 0H22.6667C23.0444 0 23.3611 0.127778 23.6167 0.383333C23.8722 0.638889 24 0.955556 24 1.33333C24 1.71111 23.8722 2.02778 23.6167 2.28333C23.3611 2.53889 23.0444 2.66667 22.6667 2.66667H1.33333Z" fill="#1C1B1F"/>
</g>
</svg>
